<?xml version="1.0" encoding="UTF-8" standalone="no"?>
<!DOCTYPE svg PUBLIC "-//W3C//DTD SVG 1.1//EN"
 "http://www.w3.org/Graphics/SVG/1.1/DTD/svg11.dtd">
<!-- Generated by graphviz version 2.50.0 (20211204.2007)
 -->
<!-- Title: IR Pages: 1 -->
<svg width="1105pt" height="376pt"
 viewBox="0.00 0.00 1105.00 376.00" xmlns="http://www.w3.org/2000/svg" xmlns:xlink="http://www.w3.org/1999/xlink">
<g id="graph0" class="graph" transform="scale(1 1) rotate(0) translate(4 372)">
<title>IR</title>
<polygon fill="white" stroke="transparent" points="-4,4 -4,-372 1101,-372 1101,4 -4,4"/>
<g id="clust1" class="cluster">
<title>cluster_f</title>
<polygon fill="none" stroke="black" points="169.5,-8 169.5,-360 1009.5,-360 1009.5,-8 169.5,-8"/>
<text text-anchor="middle" x="209.5" y="-344.8" font-family="Times,serif" font-size="14.00">number @f</text>
</g>
<g id="clust2" class="cluster">
<title>cluster_$f$body</title>
<polygon fill="none" stroke="black" points="547.5,-16 547.5,-325.5 1001.5,-325.5 1001.5,-16 547.5,-16"/>
<text text-anchor="middle" x="578.5" y="-310.3" font-family="Times,serif" font-size="14.00">$f$body</text>
</g>
<!-- $IR_VARINITS -->
<g id="node1" class="node">
<title>$IR_VARINITS</title>
<polygon fill="none" stroke="black" points="0,-253 0,-289 159,-289 159,-253 0,-253"/>
<text text-anchor="middle" x="20.5" y="-267.3" font-family="Times,serif" font-size="14.00">Inits</text>
<polyline fill="none" stroke="black" points="41,-253 41,-289 "/>
<text text-anchor="middle" x="100" y="-267.3" font-family="Times,serif" font-size="14.00">Init g: number = 0</text>
</g>
<!-- $f$args -->
<g id="node2" class="node">
<title>$f$args</title>
<polygon fill="none" stroke="black" points="423.5,-248 423.5,-294 539.5,-294 539.5,-248 423.5,-248"/>
<text text-anchor="middle" x="445" y="-267.3" font-family="Times,serif" font-size="14.00">Args</text>
<polyline fill="none" stroke="black" points="466.5,-248 466.5,-294 "/>
<text text-anchor="middle" x="503" y="-278.8" font-family="Times,serif" font-size="14.00">a: number</text>
<polyline fill="none" stroke="black" points="466.5,-271 539.5,-271 "/>
<text text-anchor="middle" x="503" y="-255.8" font-family="Times,serif" font-size="14.00">b: number</text>
</g>
<!-- $f$inits -->
<g id="node3" class="node">
<title>$f$inits</title>
<polygon fill="none" stroke="black" points="177.5,-213.5 177.5,-328.5 405.5,-328.5 405.5,-213.5 177.5,-213.5"/>
<text text-anchor="middle" x="198" y="-267.3" font-family="Times,serif" font-size="14.00">Inits</text>
<polyline fill="none" stroke="black" points="218.5,-213.5 218.5,-328.5 "/>
<text text-anchor="middle" x="312" y="-313.3" font-family="Times,serif" font-size="14.00">Init valname1: bool = None</text>
<polyline fill="none" stroke="black" points="218.5,-305.5 405.5,-305.5 "/>
<text text-anchor="middle" x="312" y="-290.3" font-family="Times,serif" font-size="14.00">Init valname2: number = None</text>
<polyline fill="none" stroke="black" points="218.5,-282.5 405.5,-282.5 "/>
<text text-anchor="middle" x="312" y="-267.3" font-family="Times,serif" font-size="14.00">Init i: number = 0</text>
<polyline fill="none" stroke="black" points="218.5,-259.5 405.5,-259.5 "/>
<text text-anchor="middle" x="312" y="-244.3" font-family="Times,serif" font-size="14.00">Init x: number = 1</text>
<polyline fill="none" stroke="black" points="218.5,-236.5 405.5,-236.5 "/>
<text text-anchor="middle" x="312" y="-221.3" font-family="Times,serif" font-size="14.00">Init ret: number = 0</text>
</g>
<!-- $startFun1 -->
<g id="node4" class="node">
<title>$startFun1</title>
<polygon fill="none" stroke="black" points="558,-248 558,-294 747,-294 747,-248 558,-248"/>
<text text-anchor="middle" x="595" y="-267.3" font-family="Times,serif" font-size="14.00">$startFun1</text>
<polyline fill="none" stroke="black" points="632,-248 632,-294 "/>
<text text-anchor="middle" x="689.5" y="-278.8" font-family="Times,serif" font-size="14.00">x = g</text>
<polyline fill="none" stroke="black" points="632,-271 747,-271 "/>
<text text-anchor="middle" x="689.5" y="-255.8" font-family="Times,serif" font-size="14.00">goto: $whilestart1</text>
</g>
<!-- $whilestart1 -->
<g id="node5" class="node">
<title>$whilestart1</title>
<polygon fill="none" stroke="black" points="634.5,-130.5 634.5,-176.5 938.5,-176.5 938.5,-130.5 634.5,-130.5"/>
<text text-anchor="middle" x="676" y="-149.8" font-family="Times,serif" font-size="14.00">$whilestart1</text>
<polyline fill="none" stroke="black" points="717.5,-130.5 717.5,-176.5 "/>
<text text-anchor="middle" x="828" y="-161.3" font-family="Times,serif" font-size="14.00">valname1 = i Lt b</text>
<polyline fill="none" stroke="black" points="717.5,-153.5 938.5,-153.5 "/>
<text text-anchor="middle" x="828" y="-138.3" font-family="Times,serif" font-size="14.00">valname1 ? $whilebody1:$whileend1</text>
</g>
<!-- $startFun1&#45;&gt;$whilestart1 -->
<g id="edge1" class="edge">
<title>$startFun1:ins1&#45;&gt;$whilestart1:lbl</title>
<path fill="none" stroke="black" d="M748.5,-259C753.63,-259 749.69,-252.14 747.5,-247.5 730.01,-210.49 684.34,-219.65 676.62,-187.3"/>
<polygon fill="black" stroke="black" points="680.06,-186.56 675.5,-177 673.1,-187.32 680.06,-186.56"/>
</g>
<!-- $whilebody1 -->
<g id="node6" class="node">
<title>$whilebody1</title>
<polygon fill="none" stroke="black" points="555.5,-24.5 555.5,-93.5 757.5,-93.5 757.5,-24.5 555.5,-24.5"/>
<text text-anchor="middle" x="599" y="-55.3" font-family="Times,serif" font-size="14.00">$whilebody1</text>
<polyline fill="none" stroke="black" points="642.5,-24.5 642.5,-93.5 "/>
<text text-anchor="middle" x="700" y="-78.3" font-family="Times,serif" font-size="14.00">ret = ret Mul a</text>
<polyline fill="none" stroke="black" points="642.5,-70.5 757.5,-70.5 "/>
<text text-anchor="middle" x="700" y="-55.3" font-family="Times,serif" font-size="14.00">i = i Plus 1</text>
<polyline fill="none" stroke="black" points="642.5,-47.5 757.5,-47.5 "/>
<text text-anchor="middle" x="700" y="-32.3" font-family="Times,serif" font-size="14.00">goto: $whilestart1</text>
</g>
<!-- $whilestart1&#45;&gt;$whilebody1 -->
<g id="edge2" class="edge">
<title>$whilestart1:ins1&#45;&gt;$whilebody1:lbl</title>
<path fill="none" stroke="green" d="M828.5,-130C828.5,-30.37 615.25,-185.16 599.43,-104.41"/>
<polygon fill="green" stroke="green" points="602.87,-103.65 598.5,-94 595.9,-104.27 602.87,-103.65"/>
</g>
<!-- $whileend1 -->
<g id="node7" class="node">
<title>$whileend1</title>
<polygon fill="none" stroke="black" points="776,-36 776,-82 993,-82 993,-36 776,-36"/>
<text text-anchor="middle" x="816" y="-55.3" font-family="Times,serif" font-size="14.00">$whileend1</text>
<polyline fill="none" stroke="black" points="856,-36 856,-82 "/>
<text text-anchor="middle" x="924.5" y="-66.8" font-family="Times,serif" font-size="14.00">valname2 = ret Plus x</text>
<polyline fill="none" stroke="black" points="856,-59 993,-59 "/>
<text text-anchor="middle" x="924.5" y="-43.8" font-family="Times,serif" font-size="14.00">return valname2</text>
</g>
<!-- $whilestart1&#45;&gt;$whileend1 -->
<g id="edge3" class="edge">
<title>$whilestart1:ins1&#45;&gt;$whileend1:lbl</title>
<path fill="none" stroke="red" d="M828.5,-130C828.5,-112.22 819.75,-106.57 816.61,-93.15"/>
<polygon fill="red" stroke="red" points="820.07,-92.56 815.5,-83 813.11,-93.32 820.07,-92.56"/>
</g>
<!-- $whilebody1&#45;&gt;$whilestart1 -->
<g id="edge4" class="edge">
<title>$whilebody1:ins2&#45;&gt;$whilestart1:lbl</title>
<path fill="none" stroke="black" d="M758.5,-36C771.39,-36 764.64,-83.27 757.5,-94 737.69,-123.77 687.29,-96.98 677.25,-120.09"/>
<polygon fill="black" stroke="black" points="673.8,-119.54 675.5,-130 680.69,-120.76 673.8,-119.54"/>
</g>
<!-- $startProg1 -->
<g id="node8" class="node">
<title>$startProg1</title>
<polygon fill="none" stroke="black" points="1018,-253 1018,-289 1097,-289 1097,-253 1018,-253"/>
<text text-anchor="middle" x="1057.5" y="-267.3" font-family="Times,serif" font-size="14.00">$startProg1</text>
</g>
</g>
</svg>
